<svg xmlns="http://www.w3.org/2000/svg" viewBox="0 0 64 64" role="img" aria-label="동그리의 기록">
  <defs>
    <linearGradient id="bg" x1="0%" y1="0%" x2="100%" y2="100%">
      <stop offset="0%" stop-color="#f8efe2" />
      <stop offset="100%" stop-color="#e4c39f" />
    </linearGradient>
  </defs>
  <rect width="64" height="64" rx="16" fill="url(#bg)" />
  <rect x="10" y="10" width="44" height="44" rx="12" fill="#fffaf2" stroke="#c7a985" stroke-width="2" />
  <path d="M22 18h16c4.4 0 8 3.6 8 8v12c0 4.4-3.6 8-8 8H26c-4.4 0-8-3.6-8-8V22c0-2.2 1.8-4 4-4Z" fill="#19202c" opacity="0.92" />
  <path d="M27 26h10c2.2 0 4 1.8 4 4v4c0 2.2-1.8 4-4 4H27c-2.2 0-4-1.8-4-4v-4c0-2.2 1.8-4 4-4Z" fill="#f6e9d7" />
  <circle cx="43" cy="21" r="4" fill="#8e472e" />
</svg>